<svg id="Capa_1" enable-background="new 0 0 511.981 511.981" height="512" viewBox="0 0 511.981 511.981" width="512" xmlns="http://www.w3.org/2000/svg"><g><path d="m182.194 419.06c19.384 0 35.154-15.77 35.154-35.154s-15.77-35.154-35.154-35.154-35.154 15.77-35.154 35.154 15.77 35.154 35.154 35.154zm0-55.308c11.113 0 20.154 9.041 20.154 20.154s-9.041 20.154-20.154 20.154-20.154-9.041-20.154-20.154 9.041-20.154 20.154-20.154z"/><path d="m508.347 433.727-33.604-128.195c-1.05-4.006-5.15-6.402-9.157-5.353-4.007 1.05-6.403 5.15-5.353 9.157l33.604 128.195c3.321 12.67 1.363 25.787-5.516 36.934-6.878 11.147-17.723 18.781-30.537 21.495-21.986 4.658-44.417-6.929-53.351-27.544l-.875-2.019c-1.647-3.8-6.063-5.547-9.864-3.899-3.8 1.647-5.546 6.063-3.899 9.864l.875 2.019c10.015 23.114 32.925 37.602 57.377 37.602 4.254 0 8.557-.439 12.845-1.347 16.866-3.573 31.141-13.621 40.194-28.293s11.633-31.939 7.261-48.616z"/><path d="m24.871 382.288c.638.167 1.277.247 1.907.247 3.327 0 6.367-2.231 7.25-5.6l31.629-120.657c2.824-10.773 12.574-18.296 23.711-18.296h54.837c6.548 0 12.703 2.55 17.333 7.179 3.772 3.772 8.788 5.85 14.122 5.85h160.66c5.334 0 10.35-2.078 14.122-5.85 4.63-4.629 10.785-7.179 17.333-7.179h54.837c11.137 0 20.887 7.523 23.711 18.296l5.738 21.888c1.05 4.006 5.149 6.404 9.157 5.353 4.007-1.05 6.403-5.15 5.353-9.157l-5.738-21.888c-3.454-13.176-13.339-23.331-25.748-27.466v-11.297c0-9.103-7.406-16.509-16.508-16.509h-41.793c-9.103 0-16.508 7.406-16.508 16.509v9.983c-7.696 1.471-14.777 5.198-20.439 10.86-.939.939-2.188 1.457-3.516 1.457h-50.258l-6.115-49.072c-.941-7.55-7.389-13.244-14.997-13.244h-.959v-112.069c0-10.657 8.67-19.327 19.327-19.327s19.327 8.67 19.327 19.327v63.294c0 17.175 13.973 31.148 31.148 31.148s31.148-13.973 31.148-31.148v-117.42c0-4.142-3.358-7.5-7.5-7.5s-7.5 3.358-7.5 7.5v117.42c0 8.904-7.244 16.148-16.148 16.148s-16.148-7.244-16.148-16.148v-63.294c0-18.928-15.399-34.327-34.327-34.327s-34.327 15.399-34.327 34.327v112.069h-.959c-7.608 0-14.056 5.693-14.997 13.244l-6.115 49.071h-51.261c-1.328 0-2.576-.518-3.516-1.457-5.663-5.663-12.743-9.389-20.439-10.86v-9.983c0-9.103-7.406-16.509-16.508-16.509h-41.793c-9.103 0-16.508 7.406-16.508 16.509v11.297c-12.409 4.135-22.294 14.29-25.748 27.466l-31.63 120.658c-1.05 4.007 1.347 8.106 5.353 9.157zm351.913-170.086h41.793c.832 0 1.508.677 1.508 1.509v9.271h-44.81v-9.271c.001-.832.677-1.509 1.509-1.509zm-128.865-23.408c.007-.057.055-.099.112-.099h16.919c.057 0 .105.042.112.099l5.884 47.217h-28.911zm-154.515 23.408h41.793c.832 0 1.508.677 1.508 1.509v9.271h-44.81v-9.271c0-.832.677-1.509 1.509-1.509z"/><path d="m329.787 419.06c19.384 0 35.154-15.77 35.154-35.154s-15.77-35.154-35.154-35.154-35.154 15.77-35.154 35.154 15.77 35.154 35.154 35.154zm0-55.308c11.113 0 20.154 9.041 20.154 20.154s-9.041 20.154-20.154 20.154-20.154-9.041-20.154-20.154 9.041-20.154 20.154-20.154z"/><path d="m390.768 436.875-7.084-16.348c4.237-6.249 7.451-13.311 9.349-20.991.994-4.021-1.46-8.087-5.481-9.081-4.021-.995-8.087 1.46-9.081 5.481-5.548 22.447-25.568 38.125-48.685 38.125-15.441 0-29.804-6.986-39.406-19.166-4.432-5.621-7.551-12-9.271-18.959-.994-4.021-5.059-6.476-9.081-5.48-4.021.994-6.475 5.06-5.48 9.081 1.076 4.352 2.584 8.524 4.489 12.501h-30.089c1.909-3.98 3.418-8.152 4.493-12.502.994-4.021-1.459-8.086-5.481-9.081s-8.086 1.46-9.081 5.481c-1.718 6.948-4.84 13.326-9.28 18.958-9.602 12.18-23.964 19.166-39.406 19.166-23.117 0-43.137-15.677-48.685-38.125-.993-4.021-5.057-6.476-9.081-5.481-4.021.994-6.475 5.059-5.481 9.081 1.898 7.681 5.112 14.743 9.349 20.991l-20.75 47.889c-8.933 20.616-31.369 32.199-53.35 27.544-12.814-2.714-23.659-10.348-30.537-21.495s-8.837-24.264-5.516-36.934l7.761-29.606c1.05-4.007-1.346-8.106-5.353-9.157s-8.106 1.347-9.157 5.353l-7.761 29.606c-4.372 16.677-1.793 33.942 7.26 48.614s23.328 24.72 40.194 28.293c4.29.908 8.589 1.347 12.845 1.347 24.45-.001 47.363-14.489 57.377-37.602l17.955-41.438c11.561 10.125 26.65 16.119 42.929 16.119 18.823 0 36.406-7.981 48.801-22.023h49.991c12.395 14.042 29.978 22.023 48.801 22.023 16.279 0 31.368-5.994 42.929-16.119l4.289 9.897c1.647 3.801 6.064 5.547 9.864 3.9 3.802-1.646 5.548-6.062 3.901-9.862z"/><path d="m242.802 380.75h26.376c8.379 0 15.196-6.817 15.196-15.197v-11.969c0-8.379-6.817-15.197-15.196-15.197h-26.376c-8.379 0-15.196 6.817-15.196 15.197v11.969c0 8.379 6.817 15.197 15.196 15.197zm-.196-27.167c0-.108.088-.197.196-.197h26.376c.108 0 .196.088.196.197v11.969c0 .108-.088.197-.196.197h-26.376c-.108 0-.196-.088-.196-.197z"/><path d="m230.109 311.13c0-4.142-3.358-7.5-7.5-7.5h-5.355c-4.142 0-7.5 3.358-7.5 7.5s3.358 7.5 7.5 7.5h5.355c4.142 0 7.5-3.358 7.5-7.5z"/><path d="m294.727 318.63c4.142 0 7.5-3.358 7.5-7.5s-3.358-7.5-7.5-7.5h-5.355c-4.142 0-7.5 3.358-7.5 7.5s3.358 7.5 7.5 7.5z"/><path d="m327.178 290.215c4.142 0 7.5-3.358 7.5-7.5s-3.358-7.5-7.5-7.5h-141.376c-4.142 0-7.5 3.358-7.5 7.5s3.358 7.5 7.5 7.5z"/><path d="m99.792 356.019h21.608c6.404 0 11.613-5.209 11.613-11.613v-8.634h8.634c6.403 0 11.613-5.209 11.613-11.613v-21.608c0-6.403-5.209-11.613-11.613-11.613h-8.634v-8.634c0-6.403-5.209-11.613-11.613-11.613h-21.608c-6.403 0-11.613 5.209-11.613 11.613v8.634h-8.634c-6.403 0-11.613 5.209-11.613 11.613v21.608c0 6.403 5.209 11.613 11.613 11.613h8.634v8.634c0 6.404 5.21 11.613 11.613 11.613zm-16.859-35.247v-14.834h12.747c4.142 0 7.5-3.358 7.5-7.5v-12.747h14.834v12.747c0 4.142 3.358 7.5 7.5 7.5h12.747v14.834h-12.747c-4.142 0-7.5 3.358-7.5 7.5v12.747h-14.834v-12.747c0-4.142-3.358-7.5-7.5-7.5z"/><path d="m410.589 286.435v-1.73c0-4.142-3.358-7.5-7.5-7.5s-7.5 3.358-7.5 7.5v1.73c0 4.142 3.358 7.5 7.5 7.5s7.5-3.358 7.5-7.5z"/><path d="m427.586 300.538c-4.142 0-7.5 3.358-7.5 7.5s3.358 7.5 7.5 7.5h1.73c4.142 0 7.5-3.358 7.5-7.5s-3.358-7.5-7.5-7.5z"/><path d="m405.983 341.764c4.142 0 7.5-3.358 7.5-7.5v-1.73c0-4.142-3.358-7.5-7.5-7.5s-7.5 3.358-7.5 7.5v1.73c0 4.142 3.358 7.5 7.5 7.5z"/><path d="m379.757 303.432c-4.142 0-7.5 3.358-7.5 7.5s3.358 7.5 7.5 7.5h1.73c4.142 0 7.5-3.358 7.5-7.5s-3.358-7.5-7.5-7.5z"/></g></svg>