<svg id="Capa_1" enable-background="new 0 0 512.129 512.129" height="512" viewBox="0 0 512.129 512.129" width="512" xmlns="http://www.w3.org/2000/svg"><g><path d="m81.569 352.805c-3.905 3.905-3.905 10.237 0 14.143l63.64 63.641c3.906 3.905 10.237 3.905 14.142 0s3.905-10.237 0-14.143l-63.64-63.641c-3.905-3.903-10.236-3.904-14.142 0z"/><path d="m265.242 190.353c-35.446-20.329-81.102-24.979-109.423 3.353-6.464 6.464-11.421 14.188-14.729 22.946-7.621 20.109-24.771 33.411-43.687 33.887-27.403.681-51.215 10.369-68.864 28.016-49.066 49.069-30.2 132.442 21.21 183.853 53.747 53.746 136.527 68.535 183.852 21.21 17.648-17.647 27.336-41.46 28.017-68.858.155-6.191 1.64-12.196 4.412-17.851 2.431-4.959.382-10.95-4.577-13.381-4.959-2.434-10.95-.382-13.381 4.576-4.05 8.261-6.219 17.06-6.448 26.155-.551 22.174-8.215 41.267-22.165 55.216-41.217 41.219-112.786 21.574-155.567-21.21-48.738-48.737-58.252-118.524-21.21-155.567 13.95-13.95 33.044-21.614 55.221-22.164 27.082-.682 51.375-19.049 61.894-46.804 2.302-6.095 5.723-11.438 10.167-15.884 17.811-17.819 49.74-18.528 80.519-2.743l-57.385 57.385c-13.961.406-27.337 6.127-37.28 16.069-21.437 21.45-21.436 56.342 0 77.779 21.493 21.505 56.28 21.504 77.785.002 9.939-9.939 15.645-23.318 16.064-37.274l57.398-57.398c11.928 23.305 14.681 47.786 6.964 66.014-2.153 5.086.225 10.954 5.311 13.107 5.085 2.154 10.955-.225 13.107-5.311 10.82-25.56 6.79-58.18-10.627-88.566l91.484-91.484 16.402-12.758 12.327 12.32c3.905 3.904 10.236 3.902 14.142-.004 3.904-3.906 3.902-10.238-.004-14.143l-10.555-10.549 31.821-24.751 7.015 7.014c3.906 3.905 10.237 3.904 14.142 0 3.905-3.905 3.905-10.237 0-14.143l-5.247-5.246 14.924-11.608c4.746-3.69 5.185-10.715.933-14.966l-63.64-63.64c-4.27-4.27-11.289-3.794-14.965.933l-11.608 14.924-5.246-5.246c-3.905-3.904-10.237-3.904-14.143 0-3.905 3.905-3.905 10.237 0 14.143l7.014 7.014-24.751 31.82-10.554-10.553c-3.905-3.904-10.237-3.904-14.142 0-3.905 3.905-3.905 10.237 0 14.143l12.321 12.32-12.765 16.412zm127.286-42.436c-4.246 4.246-122.539 122.539-147.45 147.45-2.724-6.209-6.592-11.919-11.482-16.815-4.89-4.884-10.597-8.75-16.805-11.473 24.269-24.269 145.417-145.417 147.449-147.45zm-173.069 194.279c-13.681 13.682-35.815 13.691-49.498 0-13.643-13.643-13.642-35.849 0-49.498 13.507-13.506 35.662-13.819 49.494-.005 13.794 13.811 13.535 35.973.004 49.503zm219.971-317.087 47.618 47.617c-9.231 7.181-65.548 50.986-79.549 61.877l-29.946-29.946c19.263-24.764 42.133-54.165 61.877-79.548z"/><circle cx="290.13" cy="362.028" r="10"/></g></svg>